<svg width="140" height="30" viewBox="0 0 140 30" fill="none" xmlns="http://www.w3.org/2000/svg">
<g clip-path="url(#clip0_58_68)">
<path d="M7.79772 24.473C5.25547 24.473 2.4075 23.6252 0 21.7267L2.20335 18.3368C4.16938 19.7607 6.23798 20.5059 7.93248 20.5059C9.42384 20.5059 10.1016 19.9629 10.1016 19.1493V19.0819C10.1016 17.9637 8.33876 17.5906 6.33854 16.9802C3.79629 16.2351 0.914126 15.0475 0.914126 11.5229V11.4555C0.914126 7.7609 3.89685 5.69238 7.55838 5.69238C9.86331 5.69238 12.3724 6.47273 14.3384 7.79409L12.3724 11.3529C10.5753 10.3021 8.77923 9.65847 7.45681 9.65847C6.1344 9.65847 5.55817 10.2005 5.55817 10.9125V10.9808C5.55817 11.9975 7.28686 12.4721 9.25288 13.1499C11.7951 13.9976 14.7447 15.2174 14.7447 18.5399V18.6083C14.7447 22.6418 11.7278 24.473 7.79471 24.473H7.79772Z" fill="white"/>
<path d="M21.7197 29.9625H17.6016V6.16099H21.7197V7.66738C23.394 6.32792 25.2012 5.69238 27.31 5.69238C29.5868 5.69238 31.6292 6.42949 33.202 7.80113C35.3782 9.67556 36.583 12.3203 36.583 15.1993C36.583 17.8441 35.512 20.3882 33.5359 22.1953C31.8625 23.769 29.6863 24.6057 27.3422 24.6057C24.998 24.6057 23.3247 24.0365 21.7176 22.6981V29.9625H21.7197ZM27.0425 20.4556C29.9548 20.4556 32.2648 18.012 32.2648 15.133C32.2648 12.2539 30.0222 9.8435 26.8414 9.8435C24.1634 9.8435 21.8866 12.086 21.8866 15.0656C21.8866 18.0452 24.1292 20.4556 27.0425 20.4556Z" fill="white"/>
<path d="M52.817 15.0988C52.821 15.1299 52.821 15.1651 52.821 15.2003C52.821 17.9768 50.4447 20.3219 47.832 20.3219C45.0202 20.3219 42.6449 18.1136 42.6449 14.9982C42.6449 12.086 44.9901 9.84149 47.7666 9.84149C47.9104 9.84149 48.0542 9.84953 48.194 9.86462V5.71149C48.004 5.69641 47.8008 5.69238 47.5987 5.69238C44.8885 5.69238 42.7455 6.56323 40.9373 8.46884C39.265 10.2105 38.3589 12.5556 38.3589 15.0636C38.3589 20.4224 42.3452 24.5403 47.6993 24.5403C50.4799 24.5403 52.284 23.7359 53.2916 21.9268V24.1351H57.3393V15.0978H52.817V15.0988Z" fill="white"/>
<path d="M61.0596 6.02629H64.8096V8.90532C66.3191 6.78552 68.1383 5.72461 70.2702 5.72461H70.8696L70.3366 9.34779C69.693 9.41416 69.1821 9.53784 68.805 9.71684C68.3826 9.85159 67.906 10.097 67.373 10.4539C66.4407 11.1257 65.78 11.9533 65.3919 12.9368C65.0027 13.9202 64.8096 15.318 64.8096 17.1291V24.1392H61.0596V6.02629Z" fill="white"/>
<path d="M94.4709 19.217C94.4709 20.288 94.7384 21.0361 95.2744 21.4595C95.8104 21.8839 96.5133 22.096 97.3832 22.096C97.8297 22.096 98.247 22.085 98.6423 22.085H99.8943V24.43H98.4914C97.9574 24.43 97.4053 24.4391 96.7808 24.4391C96.0889 24.4391 95.4413 24.3496 94.8389 24.1706C94.2366 23.9926 93.7177 23.708 93.2822 23.3168C92.8468 22.9267 92.5069 22.4188 92.2615 21.7934C92.0151 21.1689 91.8934 20.4207 91.8934 19.5499V8.23687H89.4829V5.96019H91.8934V0H94.4709V5.9622H99.9617V8.23888H94.4709V19.217Z" fill="white"/>
<path d="M103.075 5.96222V3.68555H105.654V5.96222H103.075ZM103.075 24.1384V8.2379H105.654V24.1374H103.075V24.1384Z" fill="white"/>
<path d="M122.088 23.5478C120.936 24.2085 119.51 24.5393 117.812 24.5393C116.485 24.5393 115.258 24.2889 114.129 23.7892C113 23.2894 112.023 22.6146 111.198 21.7649C110.371 20.9162 109.726 19.9216 109.261 18.7813C108.795 17.6419 108.563 16.4312 108.563 15.1511C108.563 13.8709 108.795 12.6552 109.261 11.5037C109.727 10.3523 110.372 9.34573 111.198 8.48493C112.023 7.62414 113.001 6.94335 114.129 6.44256C115.258 5.94278 116.485 5.69238 117.812 5.69238C118.673 5.69238 119.452 5.77384 120.151 5.93674C120.849 6.09965 121.488 6.32692 122.071 6.61753C122.652 6.90916 123.188 7.25207 123.677 7.64727C124.165 8.04348 124.619 8.46181 125.038 8.90427L123.258 10.7888C122.537 10.0436 121.752 9.40405 120.902 8.86907C120.052 8.33409 119.012 8.0666 117.779 8.0666C116.871 8.0666 116.022 8.24661 115.23 8.60661C114.439 8.96662 113.752 9.46539 113.171 10.1039C112.589 10.7425 112.135 11.4846 111.809 12.3324C111.483 13.1801 111.32 14.0901 111.32 15.0646C111.32 16.039 111.489 16.9561 111.826 17.8159C112.163 18.6747 112.629 19.4238 113.222 20.0614C113.815 20.7 114.513 21.1987 115.316 21.5587C116.118 21.9187 116.996 22.0977 117.951 22.0977C119.114 22.0977 120.144 21.8423 121.04 21.3295C121.936 20.8176 122.744 20.178 123.466 19.4098L125.176 21.0157C124.269 22.0444 123.239 22.8881 122.087 23.5498L122.088 23.5478Z" fill="white"/>
<path d="M139.493 21.3365C139.154 22.0022 138.698 22.5693 138.126 23.0359C137.553 23.5035 136.876 23.8595 136.093 24.1049C135.311 24.3503 134.464 24.4729 133.553 24.4729C132.245 24.4729 130.925 24.2336 129.594 23.7549C128.263 23.2763 127.083 22.6287 126.055 21.8101L127.422 19.8834C128.403 20.6305 129.425 21.2037 130.488 21.5999C131.551 21.9972 132.619 22.1953 133.694 22.1953C134.769 22.1953 135.691 21.9388 136.392 21.425C137.093 20.9111 137.443 20.2102 137.443 19.3223V19.2519C137.443 18.8084 137.32 18.4232 137.075 18.0954C136.83 17.7686 136.497 17.483 136.076 17.2376C135.656 16.9923 135.17 16.7771 134.622 16.589C134.073 16.402 133.506 16.227 132.923 16.0631C132.222 15.8529 131.515 15.6247 130.803 15.3803C130.09 15.1349 129.448 14.8262 128.876 14.4521C128.303 14.0781 127.836 13.6115 127.474 13.0503C127.112 12.4902 126.931 11.7893 126.931 10.9486V10.8782C126.931 10.1079 127.083 9.40101 127.387 8.75843C127.69 8.11686 128.117 7.5678 128.666 7.11226C129.215 6.65672 129.869 6.30577 130.628 6.06141C131.387 5.81604 132.21 5.69336 133.098 5.69336C134.219 5.69336 135.351 5.87437 136.497 6.23638C137.641 6.5984 138.681 7.0831 139.615 7.69048L138.389 9.7228C137.549 9.18581 136.667 8.75943 135.743 8.44368C134.82 8.12892 133.915 7.97104 133.028 7.97104C131.953 7.97104 131.101 8.22244 130.471 8.72424C129.84 9.22704 129.525 9.85152 129.525 10.5987V10.6691C129.525 11.0894 129.652 11.4575 129.91 11.7732C130.167 12.089 130.511 12.3635 130.944 12.5968C131.376 12.8301 131.872 13.0403 132.433 13.2273C132.993 13.4144 133.577 13.6014 134.185 13.7884C134.886 13.9986 135.581 14.2319 136.269 14.4893C136.958 14.7468 137.584 15.0736 138.144 15.4698C138.705 15.867 139.154 16.3457 139.494 16.9068C139.831 17.4679 140.001 18.1568 140.001 18.9743V19.0447C140.001 19.9095 139.831 20.6738 139.494 21.3395L139.493 21.3365Z" fill="white"/>
<path d="M57.3408 5.69238V14.3486H52.8958V9.84149H48.8823V5.69238H57.3408Z" fill="#EE7D2E"/>
<path d="M73.4751 24.1384V0H77.2372V15.1836L82.6475 7.44245H87.0311L81.2477 15.3706L88.1816 24.1384H83.3002L77.2372 15.6512V24.1384H73.4751Z" fill="white"/>
</g>
<defs>
<clipPath id="clip0_58_68">
<rect width="140" height="29.8759" fill="white"/>
</clipPath>
</defs>
</svg>
